<svg xmlns="http://www.w3.org/2000/svg" viewBox="0 0 512 512"><path d="M53.333 0h405.333C488.122 0 512 23.878 512 53.333v405.333C512 488.122 488.122 512 458.667 512H53.333C23.878 512 0 488.122 0 458.667V53.333C0 23.878 23.878 0 53.333 0z" fill="#f44336"/><path d="M306.475 271.104a266.281 266.281 0 01-23.467-18.197c1.792-.469 3.605-.747 5.376-1.344a77.013 77.013 0 0045.632-41.365 84.008 84.008 0 00.533-67.136 92.583 92.583 0 00-27.243-36.395h34.027c5.891 0 10.667-4.776 10.667-10.667s-4.776-10.667-10.667-10.667H256a10.16 10.16 0 00-1.728.341 81.828 81.828 0 00-30.741 4.096 77.012 77.012 0 00-45.653 41.365 84.008 84.008 0 00-.533 67.136c13.72 33.265 45.404 55.626 81.344 57.408a46.396 46.396 0 009.984 12.928c-37.867 5.227-119.339 23.381-119.339 83.392 0 27.904 13.845 74.667 106.667 74.667 68.779 0 106.667-30.315 106.667-85.333-.001-29.866-31.148-52.245-56.193-70.229zm-109.376-80.896a62.87 62.87 0 01.213-50.24 55.87 55.87 0 0133.088-30.037 60.852 60.852 0 0119.861-3.264c28.496.567 53.917 18.051 64.64 44.459a62.87 62.87 0 01-.213 50.24 55.87 55.87 0 01-33.088 30.037c-34.594 10.331-71.332-7.579-84.501-41.195zM256 405.333c-56.619 0-85.333-17.941-85.333-53.333 0-55.573 116.779-64 117.952-64a10.434 10.434 0 003.605-.853l1.792 1.301c21.099 15.104 47.317 33.963 47.317 52.885 0 42.454-28.714 64-85.333 64z" fill="#fafafa"/></svg>