<svg aria-hidden="true" style="position: absolute; width: 0; height: 0; overflow: hidden;" version="1.1" xmlns="http://www.w3.org/2000/svg" xmlns:xlink="http://www.w3.org/1999/xlink">
<defs>
<symbol id="icon-twitter" viewBox="0 0 32 32">
<path fill="#000" style="fill: var(--color1, #000)" d="M26.276 31.452c-6.844 0.73-13.709 0.73-20.553 0-2.729-0.291-4.885-2.447-5.176-5.176-0.73-6.844-0.73-13.709 0-20.552 0.291-2.729 2.447-4.885 5.176-5.176 6.844-0.73 13.709-0.73 20.552 0 2.729 0.291 4.885 2.447 5.176 5.176 0.73 6.844 0.73 13.709 0 20.552-0.291 2.729-2.447 4.885-5.176 5.176z"></path>
<path fill="#000" style="fill: var(--color1, #000)" d="M29.712 6.881c-0.258-2.422-2.171-4.334-4.593-4.593-6.073-0.648-12.165-0.648-18.238 0-2.422 0.259-4.334 2.171-4.593 4.593-0.648 6.073-0.648 12.165 0 18.238 0.259 2.422 2.171 4.335 4.593 4.593 6.073 0.648 12.165 0.648 18.238 0 2.422-0.258 4.335-2.171 4.593-4.593 0.648-6.073 0.648-12.164 0-18.238z"></path>
<path fill="#000" style="fill: var(--color1, #000)" d="M0.479 25.613c0.022 0.221 0.045 0.442 0.068 0.664 0.291 2.729 2.447 4.885 5.176 5.176 6.844 0.73 13.709 0.73 20.552 0 2.729-0.291 4.885-2.447 5.176-5.176 0.024-0.221 0.046-0.442 0.069-0.664z"></path>
<path fill="#000" style="fill: var(--color1, #000)" d="M31.993 14.875l-6.642-6.642c-0.744 0.426-1.4 0.662-1.895 0.792-0.278 0.074-0.505 0.115-0.668 0.137-0.749-0.768-1.795-1.245-2.953-1.245-2.278 0-4.125 1.847-4.125 4.125 0 0.082 0.002 0.164 0.008 0.245 0.011 0.197 0.036 0.392 0.075 0.58-0.951-0.014-4.042-0.268-6.989-2.795-0 0-0-0-0-0h-0l-1.39-1.39s-1.631 2.846 0.767 5.006c0.105 0.117 0.221 0.233 0.348 0.347 0.010 0.011 0.021 0.022 0.031 0.033-0.315-0.021-1.261-0.115-1.809-0.502 0 0-0.11 1.74 1.339 3.020l1.17 1.18c-0.356 0.030-0.751 0.022-1.025-0.098 0 0 0.243 1.031 1.181 1.855l1.64 1.648c-0.984 0.573-2.706 1.29-4.972 1.107l9.947 9.719c3.417-0.001 6.835-0.184 10.247-0.548 2.729-0.291 4.885-2.447 5.176-5.176 0.405-3.796 0.585-7.599 0.541-11.401z"></path>
<path fill="#fff" style="fill: var(--color2, #fff)" d="M25.918 9.835c-0.708 0.37-1.774 0.541-2.128 0.591-0.003-0.017-0.006-0.033-0.009-0.050 1.202-0.743 1.57-2.143 1.57-2.143-0.744 0.426-1.4 0.662-1.895 0.792-0.278 0.074-0.505 0.115-0.668 0.137-0.749-0.768-1.795-1.245-2.953-1.245-2.278 0-4.125 1.846-4.125 4.125 0 0.082 0.002 0.164 0.008 0.244 0.011 0.197 0.036 0.392 0.075 0.58-1.103-0.016-5.082-0.354-8.38-4.185 0 0-1.836 3.204 1.251 5.393 0 0-1.251-0.039-1.915-0.508 0 0-0.195 3.087 3.361 4.064 0 0-1.25 0.313-1.876 0.039 0 0 0.626 2.657 3.752 2.853 0 0-2.242 2.053-5.904 1.757 1.801 1.14 3.936 1.8 6.225 1.8 6.436 0 11.654-5.218 11.654-11.654 0-0.080-0.001-0.161-0.002-0.241 0.002-0.048 0.002-0.095 0.002-0.143 0-0.033-0.001-0.067-0.001-0.1 1.19-0.793 1.958-2.108 1.958-2.108z"></path>
</symbol>
<symbol id="icon-google" viewBox="0 0 32 32">
<path fill="#f44336" style="fill: var(--color3, #f44336)" d="M3.333 0h25.333c1.841 0 3.333 1.492 3.333 3.333v25.333c0 1.841-1.492 3.333-3.333 3.333h-25.333c-1.841 0-3.333-1.492-3.333-3.333v-25.333c0-1.841 1.492-3.333 3.333-3.333z"></path>
<path fill="#fafafa" style="fill: var(--color4, #fafafa)" d="M19.155 16.944c-0.51-0.352-0.999-0.731-1.467-1.137 0.112-0.029 0.225-0.047 0.336-0.084 1.269-0.428 2.302-1.364 2.852-2.585 0.594-1.333 0.606-2.854 0.033-4.196-0.37-0.888-0.955-1.67-1.703-2.275h2.127c0.368 0 0.667-0.298 0.667-0.667s-0.299-0.667-0.667-0.667h-5.333c-0.037 0.004-0.073 0.011-0.108 0.021-0.651-0.038-1.303 0.049-1.921 0.256-1.269 0.427-2.303 1.364-2.853 2.585-0.594 1.333-0.606 2.854-0.033 4.196 0.857 2.079 2.838 3.477 5.084 3.588 0.159 0.304 0.37 0.578 0.624 0.808-2.367 0.327-7.459 1.461-7.459 5.212 0 1.744 0.865 4.667 6.667 4.667 4.299 0 6.667-1.895 6.667-5.333-0-1.867-1.947-3.265-3.512-4.389zM12.319 11.888c-0.432-1.003-0.427-2.141 0.013-3.14 0.398-0.886 1.147-1.566 2.068-1.877 0.4-0.136 0.819-0.205 1.241-0.204 1.781 0.035 3.37 1.128 4.040 2.779 0.432 1.003 0.427 2.141-0.013 3.14-0.398 0.886-1.148 1.566-2.068 1.877-2.162 0.646-4.458-0.474-5.281-2.575zM16 25.333c-3.539 0-5.333-1.121-5.333-3.333 0-3.473 7.299-4 7.372-4 0.078-0.004 0.154-0.022 0.225-0.053l0.112 0.081c1.319 0.944 2.957 2.123 2.957 3.305 0 2.653-1.795 4-5.333 4z"></path>
</symbol>
<symbol id="icon-linkedin" viewBox="0 0 32 32">
<path fill="#0077b7" style="fill: var(--color5, #0077b7)" d="M29.105 0h-26.211c-1.599 0-2.895 1.296-2.895 2.895v26.211c0 1.599 1.296 2.895 2.895 2.895h26.211c1.599 0 2.895-1.296 2.895-2.895v-26.211c0-1.599-1.296-2.895-2.895-2.895zM9.902 27.631c0 0.465-0.377 0.842-0.842 0.842h-3.586c-0.465 0-0.842-0.377-0.842-0.842v-15.032c0-0.465 0.377-0.842 0.842-0.842h3.586c0.465 0 0.842 0.377 0.842 0.842v15.032zM7.267 10.34c-1.881 0-3.407-1.525-3.407-3.407s1.525-3.407 3.407-3.407 3.407 1.525 3.407 3.407-1.525 3.407-3.407 3.407zM28.642 27.699c0 0.428-0.347 0.775-0.775 0.775h-3.848c-0.428 0-0.775-0.347-0.775-0.775v-7.051c0-1.052 0.309-4.609-2.749-4.609-2.371 0-2.852 2.435-2.949 3.528v8.132c0 0.428-0.347 0.775-0.775 0.775h-3.722c-0.428 0-0.775-0.347-0.775-0.775v-15.167c0-0.428 0.347-0.775 0.775-0.775h3.722c0.428 0 0.775 0.347 0.775 0.775v1.311c0.879-1.32 2.186-2.338 4.969-2.338 6.161 0 6.126 5.756 6.126 8.919v7.275z"></path>
</symbol>
<symbol id="icon-facebook" viewBox="0 0 32 32">
<path fill="#3b5998" style="fill: var(--color6, #3b5998)" d="M32 16c0 8.837-7.163 16-16 16s-16-7.163-16-16c0-8.837 7.163-16 16-16s16 7.163 16 16z"></path>
<path fill="#fff" style="fill: var(--color2, #fff)" d="M20.022 16.626h-2.855v10.459h-4.326v-10.459h-2.057v-3.676h2.057v-2.379c0-1.701 0.808-4.365 4.364-4.365l3.204 0.013v3.568h-2.325c-0.381 0-0.918 0.191-0.918 1.002v2.163h3.233l-0.378 3.672z"></path>
</symbol>
</defs>
</svg>
